<?xml version="1.0" standalone="no"?>
<!DOCTYPE svg PUBLIC "-//W3C//DTD SVG 20010904//EN"
 "http://www.w3.org/TR/2001/REC-SVG-20010904/DTD/svg10.dtd">
<svg version="1.0" xmlns="http://www.w3.org/2000/svg"
 width="905.000000pt" height="888.000000pt" viewBox="0 0 905.000000 888.000000"
 preserveAspectRatio="xMidYMid meet">

<g transform="translate(0.000000,888.000000) scale(0.100000,-0.100000)"
fill="#000000" stroke="none">
<path d="M229 8800 c-59 -17 -121 -84 -141 -150 -4 -14 -8 -1584 -8 -3490 l0
-3464 23 -36 c13 -19 26 -43 30 -53 4 -9 15 -20 24 -24 10 -4 35 -17 55 -30
37 -23 40 -23 353 -23 l315 0 0 -269 c0 -217 3 -275 15 -305 8 -20 19 -36 23
-36 4 0 12 -10 17 -21 6 -12 34 -35 64 -50 l54 -29 298 0 299 0 0 -300 c0
-213 4 -307 12 -327 22 -51 57 -90 107 -116 l49 -27 3506 2 c2557 2 3509 6
3514 14 4 6 21 18 38 27 17 9 48 41 68 71 l36 54 0 3489 c0 3303 -1 3491 -17
3524 -24 48 -51 79 -97 114 l-39 30 -321 5 -321 5 -5 295 -5 296 -37 50 c-24
33 -56 60 -89 77 l-51 27 -319 0 -319 0 0 248 c0 136 -5 263 -10 283 -13 46
-93 126 -139 139 -44 12 -6943 12 -6982 0z m6949 -87 c2 -7 9 -13 16 -13 7 0
21 -10 32 -22 48 -57 49 -61 52 -310 l3 -238 -3128 -2 -3129 -3 -48 -35 c-42
-31 -62 -57 -98 -133 -5 -9 -8 -1439 -8 -3177 l0 -3160 -272 0 c-150 0 -291 5
-313 10 -51 12 -105 68 -105 109 0 17 -4 33 -10 36 -7 4 -10 1147 -10 3395 0
2248 3 3391 10 3395 6 3 10 17 10 30 0 57 61 118 126 128 16 2 1568 4 3448 3
2726 -1 3420 -4 3424 -13z m834 -695 c15 -10 39 -34 55 -54 l28 -37 3 -274 3
-273 -3133 0 c-2108 0 -3145 -3 -3170 -10 -53 -15 -124 -88 -138 -141 -6 -24
-16 -54 -22 -67 -9 -17 -9 -25 0 -34 9 -9 12 -744 12 -3115 l0 -3103 -260 0
c-142 0 -281 5 -307 10 -58 13 -102 60 -114 124 -11 55 -10 6809 0 6865 11 56
64 111 118 121 21 4 1582 7 3468 6 3234 -1 3432 -2 3457 -18z m723 -728 c3 -5
19 -10 36 -10 41 0 97 -54 109 -105 12 -51 12 -6853 1 -6915 -11 -56 -65 -110
-110 -110 -17 0 -33 -5 -36 -10 -9 -14 -6855 -14 -6855 0 0 6 -9 10 -20 10
-35 0 -69 22 -97 64 l-28 41 0 3460 0 3460 28 43 c28 43 59 62 103 62 13 0 24
5 24 10 0 7 1146 10 3419 10 2269 0 3422 -3 3426 -10z"/>
<path d="M6915 6934 c-33 -42 -75 -90 -92 -107 -18 -17 -33 -34 -33 -39 0 -4
-63 -80 -140 -167 -77 -88 -140 -162 -140 -166 0 -3 -18 -24 -40 -46 -22 -22
-40 -43 -40 -46 0 -3 -29 -38 -65 -78 -36 -40 -65 -75 -65 -78 0 -2 -19 -25
-42 -50 -84 -89 -108 -117 -108 -123 0 -3 -61 -75 -135 -159 -74 -84 -135
-157 -135 -161 0 -4 -13 -22 -30 -38 -56 -59 -250 -285 -250 -292 0 -4 -14
-22 -31 -38 -42 -42 -319 -364 -319 -371 0 -3 -13 -20 -29 -38 -15 -17 -83
-95 -150 -172 -67 -77 -132 -152 -146 -167 -14 -15 -25 -30 -25 -33 0 -3 -63
-78 -140 -165 -77 -87 -140 -161 -140 -165 0 -3 -63 -77 -140 -165 -77 -87
-140 -161 -140 -164 0 -4 -13 -21 -30 -39 -56 -61 -250 -286 -250 -291 0 -3
-12 -17 -26 -33 -14 -15 -95 -109 -180 -208 -85 -99 -168 -194 -184 -212 -17
-18 -30 -35 -30 -38 0 -5 -160 -192 -243 -285 -12 -13 -29 -34 -37 -46 -39
-59 -217 -253 -235 -256 -35 -6 -42 -43 -50 -246 -4 -108 -11 -201 -15 -207
-4 -5 -15 -184 -26 -398 -10 -213 -21 -387 -25 -387 -4 0 -10 -90 -14 -200 -9
-258 -10 -257 154 -229 36 6 71 15 76 19 6 4 62 15 125 25 63 10 117 21 120
25 3 4 66 17 140 29 74 12 144 26 155 31 11 4 63 16 115 25 52 9 104 20 115
25 11 5 67 16 125 26 58 9 110 20 115 24 6 4 71 17 145 29 74 12 142 26 151
30 8 5 51 15 95 22 126 20 153 39 302 208 73 83 132 153 132 156 0 4 11 18 25
33 63 69 255 291 255 296 0 2 12 17 26 33 14 15 95 109 179 208 84 99 167 194
184 212 17 17 31 34 31 38 0 6 194 232 250 291 17 17 30 34 30 38 0 4 63 79
140 166 77 87 140 161 140 165 0 3 15 22 34 43 76 83 246 282 246 287 0 3 18
22 40 44 22 21 40 42 40 46 0 4 63 79 140 166 77 87 140 161 140 166 0 4 11
19 25 33 49 50 255 289 255 295 0 4 12 19 26 34 53 54 314 360 314 368 0 15
64 71 85 75 12 2 22 13 25 30 3 15 42 70 88 123 45 52 82 97 82 101 0 3 18 23
40 44 22 21 40 41 40 45 0 6 190 227 251 291 16 17 29 34 29 38 0 4 62 78 138
164 76 86 141 165 145 175 3 9 11 17 17 17 15 0 12 51 -5 70 -8 9 -47 80 -87
159 -116 228 -161 313 -188 356 -14 22 -31 51 -38 65 -19 41 -102 153 -123
168 -10 7 -19 18 -19 25 0 15 -81 97 -97 97 -6 0 -16 6 -20 14 -12 21 -128
105 -203 148 -65 37 -261 136 -375 189 -33 15 -98 45 -145 67 -230 107 -225
107 -305 6z m-577 -1064 c55 -49 102 -90 105 -90 4 0 26 -20 50 -45 25 -25 48
-45 51 -45 4 0 91 -74 194 -164 215 -189 207 -182 412 -361 85 -74 170 -149
188 -167 18 -17 41 -36 51 -42 11 -6 78 -63 149 -126 130 -114 130 -115 109
-132 -12 -10 -25 -18 -28 -18 -4 0 -26 18 -50 40 -112 104 -459 410 -464 410
-4 0 -25 18 -48 39 -98 91 -346 311 -351 311 -4 0 -26 20 -49 45 -24 25 -47
45 -51 45 -4 0 -99 83 -211 184 -148 134 -200 187 -192 195 6 6 16 11 23 11 6
0 57 -40 112 -90z m-127 -85 c41 -36 92 -84 114 -105 22 -22 45 -40 51 -40 5
0 23 -13 39 -30 l29 -30 -22 -23 c-12 -13 -22 -27 -22 -32 0 -4 -18 -26 -39
-49 -68 -71 -281 -314 -281 -321 0 -4 -18 -24 -40 -45 -22 -21 -40 -41 -40
-45 0 -3 -70 -84 -155 -180 -85 -95 -155 -176 -155 -180 0 -3 -72 -86 -160
-184 -88 -99 -160 -182 -160 -187 0 -4 -20 -26 -45 -50 -25 -23 -45 -45 -45
-49 0 -4 -67 -82 -150 -175 -82 -93 -150 -171 -150 -174 0 -4 -72 -87 -160
-185 -88 -99 -160 -182 -160 -187 0 -4 -20 -26 -45 -50 -25 -23 -45 -45 -45
-49 0 -4 -54 -68 -121 -143 -66 -76 -132 -150 -145 -167 -14 -16 -99 -114
-190 -217 -90 -102 -164 -190 -164 -194 0 -4 -20 -26 -45 -50 -25 -23 -45 -45
-45 -49 0 -4 -44 -56 -97 -116 -95 -105 -123 -124 -149 -100 -5 5 -47 17 -94
26 -47 9 -89 21 -95 25 -5 4 -45 14 -88 20 -43 7 -80 17 -83 21 -2 5 9 20 26
35 16 15 30 31 30 36 0 5 63 80 140 168 77 87 140 162 140 165 0 4 18 25 40
46 22 22 40 42 40 45 0 4 45 57 100 119 55 63 100 116 100 119 0 3 18 23 40
45 22 21 40 42 40 46 0 4 63 80 140 168 76 89 150 176 164 192 14 17 77 91
141 165 63 74 127 149 141 165 14 17 90 105 170 197 79 92 144 171 144 175 0
4 18 25 40 46 22 20 40 40 40 43 0 3 48 61 106 127 153 177 164 190 164 194 0
2 63 76 140 163 77 88 140 162 140 165 0 4 63 78 140 165 77 87 140 162 140
166 0 4 14 22 31 38 56 56 319 366 319 376 0 23 31 6 101 -55z m438 -387 c66
-60 124 -108 129 -108 5 0 17 -11 25 -24 15 -22 15 -25 -3 -41 -11 -10 -20
-22 -20 -27 0 -5 -13 -23 -29 -41 -93 -105 -241 -277 -241 -281 0 -3 -16 -21
-35 -40 -19 -20 -35 -38 -35 -41 0 -3 -58 -73 -130 -155 -71 -82 -130 -152
-130 -155 0 -3 -61 -75 -135 -160 -74 -85 -135 -156 -135 -158 0 -5 2 -3 -160
-189 -60 -70 -110 -129 -110 -132 0 -2 -12 -17 -26 -33 -56 -60 -299 -346
-303 -355 -2 -5 -21 -27 -42 -49 -21 -22 -39 -42 -39 -45 0 -3 -43 -55 -95
-114 -52 -59 -95 -111 -95 -114 0 -3 -17 -22 -39 -43 -21 -21 -40 -43 -42 -49
-4 -10 -238 -287 -303 -357 -14 -16 -26 -31 -26 -33 0 -3 -48 -61 -107 -128
-142 -162 -163 -187 -163 -192 0 -3 -35 -45 -77 -94 -48 -54 -82 -85 -88 -80
-9 7 -61 36 -120 67 -66 33 -116 55 -165 69 -30 8 -71 23 -91 31 -33 14 -35
18 -25 38 6 12 24 35 38 51 27 28 272 308 323 369 14 17 100 114 190 217 91
102 165 190 165 195 0 5 20 27 44 50 24 22 45 45 47 51 2 5 57 70 121 143 65
74 129 148 143 164 14 17 100 114 190 217 91 102 165 190 165 193 0 4 17 26
39 49 38 40 263 296 321 366 16 19 102 117 190 217 88 100 160 185 160 189 0
3 17 25 39 48 86 92 281 315 281 322 0 4 15 22 33 39 17 18 77 85 132 148 55
64 103 116 107 114 4 -1 61 -50 127 -109z m403 -353 c129 -115 144 -132 132
-146 -8 -8 -14 -19 -14 -23 0 -4 -11 -20 -24 -34 -100 -111 -236 -272 -236
-280 0 -6 -13 -20 -30 -32 -16 -12 -30 -26 -30 -31 0 -6 -57 -76 -127 -156
-71 -80 -130 -150 -132 -157 -4 -11 -240 -288 -301 -353 -16 -18 -30 -35 -30
-39 0 -3 -40 -52 -90 -109 -49 -57 -90 -106 -90 -109 0 -3 -18 -22 -40 -42
-22 -20 -40 -41 -40 -46 0 -5 -56 -74 -125 -154 -69 -79 -125 -146 -125 -149
0 -4 -11 -18 -25 -33 -14 -15 -74 -85 -135 -157 -61 -71 -121 -141 -134 -155
-13 -14 -25 -30 -27 -36 -2 -7 -61 -77 -131 -157 -71 -80 -128 -150 -128 -156
0 -6 -13 -20 -30 -33 -16 -12 -30 -26 -30 -31 0 -7 -142 -175 -236 -279 -13
-14 -24 -29 -24 -32 0 -4 -56 -71 -125 -150 -69 -80 -125 -147 -125 -149 0 -3
-12 -19 -27 -36 -29 -33 -53 -40 -53 -17 0 8 -16 37 -35 65 -19 28 -35 53 -35
57 0 8 -82 113 -127 161 l-38 41 20 30 c11 17 77 96 148 175 70 80 127 148
127 152 0 3 18 24 40 46 22 22 40 43 40 46 0 3 43 54 95 113 52 59 95 111 95
114 0 3 17 22 39 43 21 21 40 43 42 49 4 10 238 287 303 357 14 16 26 31 26
33 0 3 50 62 110 132 162 186 160 184 160 189 0 2 63 77 139 166 77 89 151
176 165 192 25 30 225 266 271 319 14 16 25 30 25 33 0 2 63 77 139 166 77 89
151 176 165 192 67 81 249 294 276 322 16 18 30 35 30 38 0 10 155 185 161
182 3 -1 71 -60 151 -132z m368 -322 c77 -69 140 -128 140 -131 0 -3 -47 -58
-105 -122 -58 -65 -105 -122 -105 -126 0 -4 -13 -22 -29 -38 -57 -60 -251
-285 -251 -292 0 -3 -12 -18 -26 -33 -45 -45 -314 -359 -314 -365 0 -6 -262
-310 -330 -383 -17 -18 -30 -35 -30 -38 0 -6 -187 -222 -251 -291 -16 -17 -29
-34 -29 -38 0 -4 -63 -79 -140 -166 -77 -88 -140 -162 -140 -165 0 -3 -15 -22
-34 -43 -75 -82 -246 -282 -246 -286 0 -3 -18 -23 -40 -43 -22 -21 -40 -42
-40 -47 0 -4 -63 -80 -140 -167 -77 -87 -140 -163 -140 -169 0 -5 -13 -19 -30
-32 -16 -12 -30 -26 -30 -31 0 -8 -199 -239 -255 -297 -14 -14 -25 -29 -25
-35 0 -13 -62 -75 -74 -74 -11 0 -66 106 -86 164 -13 38 -73 158 -82 165 -6 5
111 146 208 252 13 14 24 29 24 33 0 4 56 71 125 150 69 79 125 146 125 149 0
3 8 14 18 25 50 54 238 276 242 287 3 7 17 22 33 34 15 12 27 28 27 35 0 8 6
18 13 22 16 11 247 280 247 289 0 4 13 21 30 38 16 17 77 87 135 156 58 69
118 139 135 156 16 17 30 34 30 38 0 4 55 70 123 148 67 77 132 156 145 175
13 18 29 36 37 40 8 3 15 10 15 15 0 5 43 59 95 118 52 59 95 111 95 114 0 3
16 21 35 40 19 20 35 38 35 41 0 4 56 71 125 150 69 79 125 146 125 150 0 3
57 72 128 152 70 80 130 153 134 162 3 10 18 25 32 34 14 10 26 22 26 28 0 9
138 175 148 178 1 1 66 -56 142 -126z m-4102 -2371 c68 -13 131 -27 140 -32 9
-5 53 -16 97 -25 44 -9 89 -20 100 -24 11 -5 60 -19 109 -31 49 -13 100 -29
115 -36 14 -8 32 -14 39 -14 7 0 34 -11 60 -25 26 -14 52 -25 58 -25 6 0 36
-18 68 -40 31 -22 60 -40 63 -40 3 0 36 -31 72 -68 64 -67 142 -172 179 -242
35 -65 57 -105 62 -110 10 -10 100 -198 100 -209 0 -6 4 -11 9 -11 5 0 12 -12
16 -27 3 -16 19 -53 35 -85 l29 -56 -36 -7 c-19 -3 -43 -10 -52 -15 -9 -5 -74
-19 -146 -30 -71 -12 -134 -25 -140 -29 -5 -4 -59 -16 -120 -25 -60 -9 -119
-21 -130 -26 -11 -5 -76 -18 -145 -30 -69 -12 -134 -25 -145 -30 -19 -8 -187
-40 -210 -40 -6 0 -16 39 -22 87 -7 48 -17 89 -23 91 -5 2 -10 12 -10 22 0 21
-83 100 -104 100 -9 0 -32 9 -53 19 -21 10 -69 24 -108 31 -93 15 -115 27
-115 60 0 14 4 30 9 35 4 6 16 183 26 395 10 212 22 389 26 395 5 5 9 38 9 75
0 36 4 60 8 54 4 -5 62 -20 130 -32z"/>
<path d="M4935 813 c-126 -1 -239 -7 -250 -12 -11 -5 -53 -12 -93 -14 -101 -6
-107 -14 -107 -127 0 -68 4 -93 16 -105 10 -11 48 -19 120 -25 136 -12 3525
-13 3684 0 95 7 122 13 132 26 20 27 18 198 -3 214 -8 8 -51 15 -97 18 -45 2
-88 9 -96 15 -10 8 -446 12 -1545 13 -842 0 -1634 -1 -1761 -3z"/>
<path d="M4015 734 c-42 -43 -45 -49 -45 -100 0 -52 2 -57 46 -99 44 -43 48
-45 105 -45 53 0 63 3 96 34 35 32 37 38 41 103 4 70 4 70 -35 111 -38 40 -42
42 -102 42 -60 0 -63 -1 -106 -46z"/>
<path d="M3524 755 c-4 -8 -12 -15 -20 -15 -27 0 -54 -61 -54 -124 0 -56 2
-61 40 -98 38 -36 45 -38 102 -38 60 0 63 1 105 45 40 42 43 49 43 99 0 49 -3
57 -43 100 -43 45 -44 46 -106 46 -46 0 -63 -4 -67 -15z"/>
<path d="M3021 734 c-46 -32 -61 -66 -61 -132 0 -52 3 -58 42 -95 41 -39 41
-39 111 -35 59 3 72 7 89 28 10 14 26 33 34 43 8 10 14 39 14 71 0 51 -3 57
-45 100 -42 44 -47 46 -97 45 -39 0 -62 -7 -87 -25z"/>
</g>
</svg>
